<svg width="812" height="677" viewBox="0 0 812 677" fill="none" xmlns="http://www.w3.org/2000/svg">
<path opacity="0.21" d="M785.58 383.36C799.707 383.36 811.16 361.489 811.16 334.51C811.16 307.531 799.707 285.66 785.58 285.66C771.453 285.66 760 307.531 760 334.51C760 361.489 771.453 383.36 785.58 383.36Z" fill="#F58F74"/>
<path opacity="0.21" d="M346.292 135.559C400.134 123.089 437.961 87.8475 430.781 56.8455C423.6 25.8434 374.132 10.8202 320.29 23.2902C266.448 35.7602 228.621 71.0013 235.802 102.003C242.982 133.005 292.45 148.028 346.292 135.559Z" fill="#6C63FF"/>
<path opacity="0.21" d="M189.468 125.198C205.494 122.389 216.704 109.943 214.505 97.3985C212.307 84.854 197.533 76.9614 181.507 79.7699C165.481 82.5785 154.271 95.0246 156.47 107.569C158.668 120.114 173.442 128.006 189.468 125.198Z" fill="#F58F74"/>
<path opacity="0.21" d="M780 441.4C780.073 450.7 778.15 459.907 774.36 468.4C762.12 496.05 732.13 521.98 705.91 536.06L124.8 536.38C105.75 517.43 89.98 494.14 78.07 468.38C72.1788 455.645 67.2647 442.48 63.37 429C57.9445 410.221 54.4694 390.932 53 371.44C47.42 296.24 72.47 219.2 138.36 173.35C225.59 115.98 351.2 204.69 415.83 112.29C443.49 72.7401 451.36 25.0801 502.21 22.1601C649.05 7.00005 769.37 109.64 751.66 256.21C749.01 282.98 732.3 314.21 734.11 341.43C734.273 344.06 734.634 346.674 735.19 349.25C743.19 386.11 768.19 409.65 776.94 429.4C778.737 433.161 779.776 437.238 780 441.4Z" fill="#6C63FF"/>
<path d="M342.19 154.85C344.71 146.12 342.29 136.96 332.27 130.72C321.4 123.95 306.19 124.51 295.15 131.16C292.65 126.33 287.86 122.23 283.32 119.49C280.914 117.949 278.095 117.182 275.24 117.29C275.77 108.76 273.18 100.12 267.05 94.2099C262.667 89.9698 256.986 87.325 250.92 86.6999C249.66 80.6999 246.56 74.8799 242.3 71.5299C238.23 68.3299 231.73 66.0999 226.38 67.3799C218.46 57.7599 202.28 56.2699 190.57 57.7699C174.51 59.8299 165.94 69.6399 163.05 83.1299C160.197 81.456 156.885 80.7348 153.594 81.0711C150.303 81.4074 147.206 82.7836 144.75 84.9999C142.298 87.2112 140.457 90.0176 139.406 93.1479C138.355 96.2783 138.129 99.6268 138.75 102.87C135.122 101.725 131.281 101.425 127.52 101.994C123.758 102.562 120.177 103.984 117.05 106.15C112.741 109.081 109.372 113.197 107.35 118C96.62 110.7 81.35 108.44 70.23 112.33C52.23 118.68 45.32 134.08 46.57 150.67C44.895 150.158 43.1172 150.081 41.4044 150.447C39.6915 150.813 38.1 151.609 36.78 152.76C34.23 154.92 33.11 158.47 33.28 161.99C13 164 -2.55996 186.44 1.15004 206.16C3.15004 216.57 9.85003 225.29 19.87 229.02C21.1969 229.502 22.553 229.899 23.93 230.21C24.5087 236.935 26.9577 243.364 31 248.77C39.94 260.36 55.23 256.27 65.32 248.62C65.9782 249.748 66.894 250.703 67.9925 251.409C69.091 252.115 70.3409 252.55 71.64 252.68C76.89 253.42 82.18 250.07 85.22 245.62C87.48 253.57 91.46 260.86 98.98 265.32C106.32 269.67 115.23 269.27 122.98 266.12C126.38 276.35 136.92 285.73 146.14 287.58C161.49 290.67 174.68 280.87 183.14 268.51C193.241 278.507 206.848 284.163 221.06 284.27C232.64 284.35 246.65 278.72 252.68 268.85C259.17 270.03 267.58 267.26 271.56 263.54C274.8 260.54 277.31 254.21 277.95 247.9C285.422 248.95 293.036 248.248 300.19 245.85C313.36 241.1 324.78 228.94 327.19 215C338.42 212.46 349.5 203 353.19 193.53C357.94 181.56 354.23 160.63 342.19 154.85Z" fill="#7CD093" stroke="#002346" stroke-miterlimit="10"/>
<path d="M182.23 335.72C186.65 325.29 191.04 314.85 195.12 304.28C206 276.15 210.2 244.85 226.12 218.99L226.98 218.22C230.5 215.22 234.09 212.44 237.58 209.52C250.33 205.19 263.99 207.6 277.37 204.45C288.79 201.75 298.94 195.64 304.68 185.18C304.712 185.11 304.72 185.032 304.703 184.957C304.685 184.883 304.643 184.816 304.582 184.769C304.522 184.721 304.448 184.695 304.371 184.696C304.294 184.696 304.22 184.722 304.16 184.77C292.23 196.37 276.78 200.15 260.49 200.19C256.16 200.19 251.63 200.07 247.19 200.39C247.9 199.59 248.61 198.78 249.28 197.94C256 189.54 260.53 179.67 264.19 169.63C264.78 168 262.26 167.38 261.63 168.92C256.681 180.614 248.905 190.895 239 198.84C230.59 205.78 220.72 210.75 213.53 219.13C210.302 223.039 207.756 227.465 206 232.22C204.32 222.38 201.15 212.94 198.31 203.27C198.05 202.38 197.83 201.51 197.61 200.64C196.53 195.432 195.841 190.151 195.55 184.84C195.55 183.45 195.6 182.06 195.69 180.68C199 167.19 201.24 152.21 213.55 144.68C223.04 138.87 232.75 136.41 237.44 125.45C237.87 124.45 236.52 123.56 235.91 124.56C227.97 137.56 209.49 136.06 200.43 148.05C197.699 151.81 195.53 155.946 193.99 160.33C193.531 156.325 192.803 152.356 191.81 148.45C187.67 132.45 178.13 117.62 180.62 100.55C180.74 99.76 179.62 99.3899 179.4 100.21C177.22 110.73 178.4 120.72 181.11 131.04C184.93 145.77 187.67 159.63 188.24 174.92C188.7 187.15 189.13 199.44 192.38 211.32C193.74 216.32 195.38 221.09 196.79 225.86C197.01 227 197.22 228.14 197.43 229.28C198.169 233.464 198.62 237.694 198.78 241.94C197.07 254.59 192.35 266.94 186.78 278.61C186.361 279.222 185.802 279.726 185.15 280.08C184.9 280.2 184.69 280.26 184.46 280.35C175.23 274.41 168.4 263.13 160.69 255.6C152.98 248.07 145.02 240.19 140.01 230.93C136.508 220.919 136.561 210.007 140.16 200.03C146.38 182.14 170.16 170.73 169.1 150.69C169.05 149.81 167.66 149.51 167.47 150.47C164.47 165.75 150.26 171.47 141.72 183.11C140.72 184.52 139.72 186 138.85 187.5C139.42 177.84 138.14 168.62 133.06 159.86C132.68 159.2 131.73 159.78 132.06 160.45C142.92 182.87 124.69 207.04 128.88 229.91C121.77 224.75 114.52 219.75 108.28 213.5C102.864 207.988 98.0776 201.89 94.0097 195.32C90.4426 188.466 87.4329 181.337 85.0097 174C82.9197 167.63 80.1497 161.06 74.0097 157.75C73.7197 157.59 73.2997 157.93 73.5297 158.23C79.4197 166.23 80.2697 175.35 83.5297 184.47C84.9329 188.486 86.7669 192.339 88.9997 195.96C91.7678 201.349 95.1214 206.416 98.9997 211.07C91.6597 208.25 83.8497 207.7 76.3397 205.56C64.8762 202.459 54.8968 195.367 48.1997 185.56C48.1009 185.417 47.9521 185.317 47.7829 185.279C47.6136 185.242 47.4363 185.269 47.2863 185.356C47.1362 185.443 47.0245 185.583 46.9732 185.749C46.9219 185.915 46.935 186.093 47.0097 186.25C55.5497 201.09 67.5697 209.85 84.1997 213.83C100.83 217.81 113.05 227.13 125.83 236.55C146.07 255.65 165.69 274.79 167.11 304.38C168.85 340.69 146.73 370.53 129.29 400.3C113.12 427.89 108.21 490.9 114.35 522.12H182.85C151.16 475.63 163 386.23 182.23 335.72Z" fill="#8C6239" stroke="#0D2445" stroke-miterlimit="10"/>
<path d="M783.76 372.22C789.06 368.22 793.05 362.51 790.86 355.42C789.62 351.42 786.09 348.33 781.97 346.61C782.645 343.247 782.536 339.774 781.65 336.46C779.44 327.46 775.24 317.82 767.83 311.95C765.44 310.029 762.695 308.597 759.752 307.736C756.808 306.876 753.724 306.604 750.676 306.935C747.627 307.267 744.674 308.195 741.984 309.668C739.294 311.141 736.921 313.13 735 315.52C731.562 313.541 727.537 312.833 723.63 313.52C721.259 314.057 719.019 315.061 717.041 316.474C715.063 317.888 713.387 319.681 712.11 321.75C703.06 315.69 690.24 315.75 679.74 322.36C668.83 329.26 661.49 343.2 663.29 355.63C645.48 363.63 637.57 395.47 641.97 411.85C646.62 429.15 662.97 439.75 678.82 438.28C680.41 455.28 695.67 469.01 714.91 468.84C737.45 468.64 754.1 452.44 753.66 432.84C759.072 432.789 764.39 431.416 769.15 428.84C778.15 423.97 787.88 415.36 790.62 405.15C793.24 395.21 790.06 382.65 783.76 372.22Z" fill="#7CD093" stroke="#002346" stroke-miterlimit="10"/>
<path d="M700.46 283.35C692.37 274.44 680.18 268.59 668.26 267.24C666.185 266.998 664.09 266.975 662.01 267.17C653.07 249.17 622.77 233.37 609.28 256.81C606.191 255.448 602.75 255.098 599.45 255.81C591.63 257.7 590.16 265.06 591.62 271.74C581.31 273.11 569.95 283.32 566.51 291.68C560.94 305.19 565.96 326.08 578.57 334.52C572.41 348.79 577.11 364.23 591.57 375.69C596.021 379.148 601.422 381.166 607.05 381.476C612.678 381.785 618.267 380.37 623.07 377.42C625.154 380.796 628.33 383.358 632.07 384.68C636.135 385.836 640.484 385.437 644.27 383.56C647.768 386.806 652.025 389.12 656.65 390.29C670.9 393.94 685.71 386.62 695.29 376.36C707.58 363.22 709.59 344.15 702.29 330.45C712.92 316.88 714.16 298.43 700.46 283.35Z" fill="#7CD093" stroke="#002346" stroke-miterlimit="10"/>
<path d="M782.11 138.33C777.751 128.068 769.634 119.861 759.42 115.39C757.12 94.8799 744.71 76.8599 721.86 74.5199C710.86 73.3899 699.31 77.3799 690.92 84.6299C686.92 76.5399 677.92 72.63 669 77.79C663.66 80.87 660.55 86.6099 659.46 92.7899C641.59 86.2599 615.07 105.34 606.79 118.91C597.39 134.32 595.1 160.6 605.65 176.61C601.56 183.24 602.36 193.35 606.35 200.69C609.63 206.69 614.68 213.69 621.92 214.69C625.055 215.128 628.249 214.784 631.22 213.69C633.22 220.52 637.29 226.63 643.45 230.36C647.402 232.698 651.835 234.107 656.412 234.48C660.989 234.852 665.591 234.179 669.87 232.51C672.107 235.109 674.837 237.238 677.903 238.775C680.969 240.311 684.309 241.224 687.73 241.46C690.897 241.713 694.079 241.23 697.028 240.049C699.978 238.868 702.614 237.02 704.73 234.65C708.942 240.17 714.91 244.089 721.65 245.76C735.41 249.2 749.18 240.63 758.94 231.65C771.42 220.17 773.61 206.59 768.94 190.65C768.71 189.86 768.47 189.08 768.23 188.3C783.35 177.11 790.21 157.49 782.11 138.33Z" fill="#7CD093" stroke="#002346" stroke-miterlimit="10"/>
<path d="M754.61 371.72C746.06 378.04 735.3 381.23 727.94 389.25C726.23 388.18 728.42 389.54 726.71 388.48C732.45 373 737.85 357.42 743.71 341.95C744.13 340.86 742.34 340.11 741.82 341.16C730.47 364.16 718.48 386.46 708.47 410.1C705.58 416.94 702.39 423.88 699.2 430.89C698.34 423.72 697.47 416.54 696.33 409.43C694.61 383.883 693.18 358.317 692.04 332.73C691.72 325.357 691.433 317.987 691.18 310.62C690.786 300.011 692.422 289.425 696 279.43C698.324 272.931 701.056 266.585 704.18 260.43C716.65 235.96 733.31 214.43 740.08 187.36C740.122 187.181 740.092 186.993 739.998 186.835C739.903 186.677 739.751 186.562 739.574 186.514C739.396 186.466 739.207 186.489 739.046 186.578C738.885 186.667 738.764 186.814 738.71 186.99C734.71 199.06 728.2 209.77 721.09 220.14C721.24 208.76 717.41 195.57 715.7 186.6C715.57 185.93 714.53 186.1 714.52 186.76C714.45 195 714.64 203.25 715.03 211.49V211.67C715.402 222.167 712.333 232.498 706.29 241.09C700.953 248.572 696.231 256.475 692.17 264.72C691.383 266.4 690.624 268.097 689.89 269.81C689.644 261.043 689.383 252.277 689.11 243.51C689.2 236 689.25 228.51 689.17 220.96C689.17 218.87 689.17 216.79 689.17 214.7C689.79 202.36 689.99 189.95 692.27 177.7C696.01 157.62 706.27 139.6 709.59 119.56C709.643 119.365 709.617 119.157 709.516 118.982C709.416 118.806 709.25 118.678 709.055 118.625C708.86 118.572 708.652 118.599 708.477 118.699C708.301 118.799 708.173 118.965 708.12 119.16C704.4 130.93 696.76 140.62 691.88 151.85C690.126 155.923 688.636 160.105 687.42 164.37C686.42 152.14 684.93 139.92 682.76 127.75C682.65 127.13 681.76 127.33 681.76 127.89C680.23 148.64 679.82 169.49 679.76 190.36C677.395 186.446 674.831 182.654 672.08 179C662.08 165.37 649.52 152.92 637.95 140.63C637.907 140.585 637.849 140.557 637.786 140.552C637.724 140.548 637.662 140.567 637.613 140.606C637.564 140.645 637.531 140.701 637.521 140.763C637.512 140.825 637.525 140.888 637.56 140.94C644.18 151.18 651.28 161.12 658.12 171.23C649.2 166.87 638.12 168.17 628.31 168.07C628.199 168.069 628.09 168.109 628.007 168.183C627.923 168.257 627.87 168.359 627.857 168.47C627.845 168.581 627.874 168.692 627.939 168.783C628.004 168.874 628.101 168.937 628.21 168.96C640.61 171.87 653.63 172.16 662.57 182.02C665.964 185.897 669.06 190.025 671.83 194.37C673.164 197.33 674.453 200.33 675.7 203.37C676.26 204.76 676.7 205.99 677.16 207.11C678.769 218.709 679.614 230.401 679.69 242.11C676.32 283.3 671.54 324.57 668.69 365.78C666.14 360.78 663.52 355.78 660.69 350.9C657.97 346.23 654.98 341.75 651.82 337.39C651.691 337.124 651.515 336.883 651.3 336.68C638.3 318.79 622.54 302.79 611.86 283.48C611.66 283.12 611 283.37 611.17 283.78C616.39 296.35 624.53 307.22 631.52 318.83C633.09 321.44 634.62 324.08 636.17 326.69C634.178 325.494 632.095 324.458 629.94 323.59C620.01 319.69 609.27 317.34 598.99 314.59C598.58 314.48 598.29 315.1 598.69 315.29C608.33 319.9 618.14 324.15 627.77 328.76C629.496 329.607 631.14 330.611 632.68 331.76C640.481 337.584 646.957 344.998 651.68 353.51L653.84 357.34C655.994 361.2 658.09 365.087 660.13 369C664.908 378.163 667.211 388.414 666.81 398.74C666.4 409 666.16 419.26 666.15 429.51C662.81 461.08 663.53 493.62 665.37 524.76H715.7C715.53 524.36 715.36 523.92 715.19 523.54C711.45 501.27 706.29 479.2 702.67 456.89C702.212 454.036 702.527 451.112 703.58 448.42C708.1 436.76 712.28 424.93 716.92 413.76L716.99 413.58C721.211 403.444 728.064 394.619 736.84 388.02L739.15 386.26C744.75 381.92 749.35 376.54 754.93 372.26C755.14 371.94 754.84 371.55 754.61 371.72Z" fill="#8C6239" stroke="#0D2445" stroke-miterlimit="10"/>
<path d="M289.04 349.13H48.6797V444.61H289.04V349.13Z" fill="#E6E6E6" stroke="#0D2445" stroke-linecap="round" stroke-linejoin="round"/>
<path d="M289.04 444.61H474.37V344.74L385.62 209.74L289.04 349.13V444.61Z" fill="white" stroke="#0D2445" stroke-linecap="round" stroke-linejoin="round"/>
<path d="M426.23 317.3H331.84V416.08H426.23V317.3Z" fill="#F2F2F2" stroke="#0D2445" stroke-linecap="round" stroke-linejoin="round"/>
<path d="M433.91 317.3H426.23V416.08H433.91V317.3Z" fill="#E6E6E6" stroke="#0D2445" stroke-linecap="round" stroke-linejoin="round"/>
<path d="M276.97 356.81H294.7L383.43 219.62L474.37 356.81H491.52L384.79 194.04L276.97 356.81Z" fill="#8ED8F2" stroke="#002346" stroke-miterlimit="10"/>
<path d="M276.97 356.81H35.75L143.62 194.04H384.79L276.97 356.81Z" fill="#6C63FF" stroke="#002346" stroke-miterlimit="10"/>
<path d="M56.9297 356.81L166.67 194.04" stroke="#0D2445" stroke-linecap="round" stroke-linejoin="round"/>
<path d="M84.3701 356.81L194.11 194.04" stroke="#0D2445" stroke-linecap="round" stroke-linejoin="round"/>
<path d="M118.39 356.81L228.13 194.04" stroke="#0D2445" stroke-linecap="round" stroke-linejoin="round"/>
<path d="M151.32 356.81L261.05 194.04" stroke="#0D2445" stroke-linecap="round" stroke-linejoin="round"/>
<path d="M180.95 356.81L290.69 194.04" stroke="#0D2445" stroke-linecap="round" stroke-linejoin="round"/>
<path d="M214.97 356.81L324.71 194.04" stroke="#0D2445" stroke-linecap="round" stroke-linejoin="round"/>
<path d="M248.99 356.81L358.73 194.04" stroke="#0D2445" stroke-linecap="round" stroke-linejoin="round"/>
<path d="M483.85 437.48H38.2598V452.85H483.85V437.48Z" fill="#E6E6E6" stroke="#0D2445" stroke-linecap="round" stroke-linejoin="round"/>
<path d="M66.2499 452.29H50.8799V522.53H66.2499V452.29Z" fill="white" stroke="#0D2445" stroke-linecap="round" stroke-linejoin="round"/>
<path d="M241.85 452.29H226.48V522.53H241.85V452.29Z" fill="white" stroke="#0D2445" stroke-linecap="round" stroke-linejoin="round"/>
<path d="M298.92 452.29H283.55V522.53H298.92V452.29Z" fill="white" stroke="#0D2445" stroke-linecap="round" stroke-linejoin="round"/>
<path d="M474.53 452.29H459.16V522.53H474.53V452.29Z" fill="white" stroke="#0D2445" stroke-linecap="round" stroke-linejoin="round"/>
<path d="M405.38 522.54H393.47L348.31 409.49H361.65L376.43 447.7L378.3 452.54L384.49 468.55L386.37 473.39L394.69 494.89L396.56 499.73L405.38 522.54Z" fill="white" stroke="#0D2445" stroke-linecap="round" stroke-linejoin="round"/>
<path d="M398.2 409.49L451.93 522.54H463.55L411.09 409.49H398.2Z" fill="white" stroke="#0D2445" stroke-linecap="round" stroke-linejoin="round"/>
<path d="M368 425.74H413.36C413.909 425.742 414.441 425.93 414.87 426.273C415.298 426.617 415.598 427.095 415.72 427.63C415.808 427.988 415.814 428.36 415.736 428.72C415.659 429.08 415.5 429.417 415.273 429.707C415.045 429.996 414.754 430.229 414.423 430.389C414.092 430.549 413.728 430.632 413.36 430.63H369.82L368 425.74Z" fill="#F2F2F2" stroke="#0D2445" stroke-linecap="round" stroke-linejoin="round"/>
<path d="M433.29 471C433.29 471.642 433.035 472.257 432.581 472.711C432.128 473.165 431.512 473.42 430.87 473.42H386.37L384.49 468.58H430.87C431.42 468.58 431.953 468.768 432.382 469.111C432.811 469.455 433.11 469.934 433.23 470.47C433.275 470.643 433.295 470.821 433.29 471Z" fill="#F2F2F2" stroke="#0D2445" stroke-linecap="round" stroke-linejoin="round"/>
<path d="M424.51 450.12C424.507 450.761 424.251 451.375 423.798 451.828C423.345 452.282 422.731 452.538 422.09 452.54H378.3L376.43 447.7H422.09C422.638 447.7 423.17 447.886 423.599 448.227C424.027 448.569 424.327 449.046 424.45 449.58C424.494 449.757 424.514 449.938 424.51 450.12Z" fill="#F2F2F2" stroke="#0D2445" stroke-linecap="round" stroke-linejoin="round"/>
<path d="M444.26 497.31C444.26 497.95 444.007 498.564 443.555 499.018C443.103 499.471 442.491 499.727 441.85 499.73H396.55L394.69 494.89H441.85C442.4 494.89 442.933 495.078 443.362 495.421C443.791 495.765 444.09 496.244 444.21 496.78C444.247 496.954 444.264 497.132 444.26 497.31Z" fill="#F2F2F2" stroke="#0D2445" stroke-linecap="round" stroke-linejoin="round"/>
<path d="M798.349 531H26.5092C25.174 531.066 23.867 530.601 22.8726 529.708C21.8781 528.815 21.2767 527.565 21.1992 526.23C21.2742 524.894 21.8745 523.642 22.8692 522.746C23.864 521.851 25.1724 521.385 26.5092 521.45H798.349C799.686 521.385 800.994 521.851 801.989 522.746C802.984 523.642 803.584 524.894 803.659 526.23C803.582 527.565 802.98 528.815 801.986 529.708C800.991 530.601 799.684 531.066 798.349 531Z" fill="#7CD093" stroke="#002346" stroke-miterlimit="10"/>
<path d="M798.349 540.5H26.5092C25.174 540.565 23.867 540.101 22.8726 539.208C21.8781 538.314 21.2767 537.064 21.1992 535.73C21.2868 534.402 21.8926 533.163 22.8859 532.278C23.8793 531.393 25.1806 530.934 26.5092 531H798.349C799.686 530.934 800.994 531.4 801.989 532.296C802.984 533.191 803.584 534.444 803.659 535.78C803.569 537.106 802.962 538.343 801.969 539.225C800.976 540.108 799.676 540.566 798.349 540.5Z" fill="#7CD093" stroke="#002346" stroke-miterlimit="10"/>
<path d="M420.46 544.79C420.46 544.79 418.51 563.26 414.46 570.55" stroke="#0D2445" stroke-linecap="round" stroke-linejoin="round"/>
<path d="M401.51 573.79C401.51 573.79 418.51 566.5 435.91 573.79" stroke="#0D2445" stroke-linecap="round" stroke-linejoin="round"/>
<path d="M446.38 537.51C446.38 537.51 444.43 556.78 440.38 564.07" stroke="#0D2445" stroke-linecap="round" stroke-linejoin="round"/>
<path d="M429 566.5C439.115 563.142 450.045 563.142 460.16 566.5" stroke="#0D2445" stroke-linecap="round" stroke-linejoin="round"/>
<path d="M619.41 216.32C619.41 216.32 640.91 210.54 656.9 230.12C672.89 249.7 662.95 273.81 637.62 273.12C612.29 272.43 606.4 246.54 606.4 246.54L619.41 216.32Z" fill="#002346" stroke="#002346" stroke-miterlimit="10"/>
<path d="M580.35 224.58C578.028 221.773 576.33 218.504 575.369 214.99C574.409 211.476 574.208 207.798 574.78 204.2C576.03 195.73 579.78 192.92 579.78 192.92C579.78 192.92 573.78 181.51 590.88 181.92C607.98 182.33 621.88 180.83 629.49 195.5C633.97 204.14 632.19 222.9 632.19 222.9L580.35 224.58Z" fill="#002346" stroke="#002346" stroke-miterlimit="10"/>
<path d="M591.6 657.34V663.41C594.382 663.589 597.037 664.638 599.19 666.41C599.19 666.41 600.71 668.68 609.06 668.68H623.11C623.401 668.681 623.689 668.622 623.956 668.506C624.223 668.39 624.463 668.22 624.661 668.007C624.859 667.794 625.011 667.542 625.107 667.267C625.203 666.992 625.242 666.701 625.22 666.41L625 663.41L616.38 655.86L596.92 654.3L591.6 657.34Z" fill="white" stroke="#0D2445" stroke-miterlimit="10"/>
<path d="M576.42 652.78L569.78 654.78C569.152 654.97 568.567 655.282 568.06 655.7L553.94 667.26C553.261 667.818 552.409 668.122 551.53 668.12H533.92C532.912 668.12 531.944 667.72 531.23 667.008C530.516 666.295 530.113 665.329 530.11 664.32V662.66H549.83C549.83 662.66 555.16 662.66 561.24 655.07C561.24 655.07 566.55 648.24 571.86 648.24C571.86 648.24 578.7 648.24 577.18 641.41C581 652 576.42 652.78 576.42 652.78Z" fill="white" stroke="#0D2445" stroke-miterlimit="10"/>
<path d="M600.11 259.48C600.11 259.48 576.53 261.88 570.02 272.87L553.65 308.15L576.88 318.67L579.88 308.93L586.33 346.86H646.62L669.83 291.45C669.83 291.45 655.11 266.19 637.11 258C633.398 256.346 629.302 255.744 625.27 256.26L622.48 256.61L600.11 259.48Z" fill="#F58F74" stroke="#0D2445" stroke-miterlimit="10"/>
<path d="M583.54 263.36C583.54 263.36 591.83 303.48 582.99 327.45L586.29 346.86V356L527.44 492.58C524.241 500.004 523.458 508.246 525.2 516.14L543.78 600.4H571.6L566 508.55C565.85 506.092 566.53 503.655 567.93 501.63L594.64 463L595.4 608C600.586 607.808 605.71 606.795 610.58 605C610.58 605 617.41 602.72 621.21 604.24L642.62 506.55C644.536 497.806 645.723 488.919 646.17 479.98L650.81 387.13C650.81 387.13 649.81 354.13 649.19 340.65C649.19 340.65 648.45 284.65 637.11 258.08C637.11 258.08 631.94 255.93 629.99 256.25C629.99 256.25 635.63 272.51 636.39 284.65C636.39 284.65 620.45 294.52 596.92 293L590.62 261.26C588.216 261.804 585.851 262.505 583.54 263.36Z" fill="#6C63FF" stroke="#0D2445" stroke-miterlimit="10"/>
<path d="M594.64 463.01L602.61 409.54" stroke="#0D2445" stroke-linecap="round" stroke-linejoin="round"/>
<path d="M571.86 648.23C566.55 648.23 561.24 655.06 561.24 655.06C555.16 662.65 549.83 662.65 549.83 662.65H530.11C530.091 661.347 530.35 660.055 530.87 658.86L545.3 645.19C548.646 641.445 550.743 636.751 551.3 631.76C551.51 629.934 551.259 628.084 550.57 626.38L542.31 605.72C540.79 600.4 543.83 600.4 543.83 600.4H571.6C572.86 626.21 577.18 641.4 577.18 641.4C578.7 648.23 571.86 648.23 571.86 648.23Z" fill="#F58F74" stroke="#0D2445" stroke-miterlimit="10"/>
<path d="M596.92 608H593.3L593.85 644.19C593.871 645.197 593.641 646.194 593.18 647.09C591.679 650.284 591.13 653.842 591.6 657.34H596.15C596.15 657.34 599.15 663.41 612.15 663.41H625C625 663.41 626.52 659.62 623.48 657.34L616.38 649.99C616.38 649.99 613.62 647.47 615.13 641.4L622.73 612.55C622.73 612.55 625 606.48 621.21 604.2C621.21 604.2 618.93 602.68 610.58 604.96C610.58 605 603 608 596.92 608Z" fill="#F58F74" stroke="#0D2445" stroke-miterlimit="10"/>
<path d="M579.84 308.93C579.84 308.93 580.79 297.52 582.78 289.93" stroke="#0D2445" stroke-linecap="round" stroke-linejoin="round"/>
<path d="M556.94 309.64L551.37 336.23L534.67 369.63C531.676 372.326 529.298 375.636 527.7 379.334C526.102 383.032 525.321 387.032 525.41 391.06C525.426 392.955 525.796 394.831 526.5 396.59C527.9 400.1 530.72 405.46 533.91 402.28C533.91 402.28 536.1 406.5 539.18 403.28C539.18 403.28 541.5 406.86 543.78 401.55C543.78 401.55 547.57 403.07 548.33 396.99L549.85 375.74L565 348.38C569.861 338.752 573.187 328.425 574.86 317.77L556.94 309.64Z" fill="#EFB0BE" stroke="#0D2445" stroke-miterlimit="10"/>
<path d="M533.91 385.56C533.91 385.56 536.19 383.3 540.74 385.56C540.74 385.56 544.67 382.5 546.12 387.45V390.38C546.12 390.38 548.33 392.38 546.81 394.67C546.81 394.67 547.57 398.46 544.54 398.46C544.54 398.46 539.98 401.46 537.7 396.94C537.7 396.94 532.64 399.99 531.76 395.05C531.76 395.05 529.6 391.95 531.76 389.13C531.76 389.15 530.11 386.31 533.91 385.56Z" fill="#FBE493" stroke="#0D2445" stroke-miterlimit="10"/>
<path d="M716.13 335.28L622.7 360.05L608.87 334.16L607.54 331.68C607.54 331.68 610.54 308.15 658.4 298.28C658.4 298.28 697.88 288.41 714.58 302.83L714.66 304.63L716.13 335.28Z" fill="#E6E6E6" stroke="#0D2445" stroke-miterlimit="10"/>
<path d="M607.54 331.68C607.54 331.68 610.54 308.15 658.4 298.28C658.4 298.28 697.88 288.41 714.58 302.83L714.66 304.63C714.817 304.667 714.982 304.656 715.132 304.597C715.282 304.538 715.411 304.434 715.5 304.3C715.73 304.026 715.896 303.705 715.988 303.359C716.079 303.013 716.094 302.652 716.03 302.3C713.87 289.88 681.9 289.94 681.9 289.94C635.9 292 616.96 310.22 609.38 317.77C608.214 318.912 607.25 320.244 606.53 321.71C605.29 324.29 604.44 328.14 607.54 331.68Z" fill="white" stroke="#0D2445" stroke-miterlimit="10"/>
<path d="M715.7 326.33L715.37 319.53C715.37 319.53 706.23 315.74 710.02 313.46C710.02 313.46 702.86 309.31 709.1 308.73C709.1 308.73 698.77 300.91 707.44 301.49C707.44 301.49 704.71 296 710.78 299.04C710.78 299.04 719.13 304.35 719.13 308.15C719.13 308.15 720.65 310.99 719.13 312.23C719.761 312.883 720.168 313.719 720.29 314.619C720.412 315.518 720.244 316.433 719.81 317.23C720.219 318.988 720.038 320.831 719.295 322.476C718.552 324.12 717.289 325.475 715.7 326.33Z" fill="#EFB0BE" stroke="#0D2445" stroke-linecap="round" stroke-linejoin="round"/>
<path d="M600.11 250.1V259.48L620.65 272.4C621.058 272.656 621.521 272.812 622 272.855C622.48 272.899 622.963 272.828 623.41 272.65C624.075 272.386 624.626 271.897 624.968 271.268C625.309 270.64 625.42 269.912 625.28 269.21C623.86 261.96 619.5 240.65 615.13 229.33L610 224.75L600.11 250.1Z" fill="#EFB0BE" stroke="#0D2445" stroke-miterlimit="10"/>
<path d="M610.96 215.91C610.96 207.317 603.993 200.35 595.4 200.35C586.806 200.35 579.84 207.317 579.84 215.91V235.27C579.84 243.864 586.806 250.83 595.4 250.83C603.993 250.83 610.96 243.864 610.96 235.27V215.91Z" fill="#EFB0BE" stroke="#0D2445" stroke-miterlimit="10"/>
<path d="M645.95 296.09V276.93" stroke="#0D2445" stroke-linecap="round" stroke-linejoin="round"/>
<path d="M673.794 364.323C699.594 357.482 718.54 344.506 716.109 335.34C713.679 326.174 690.794 324.289 664.993 331.13C639.193 337.971 620.248 350.947 622.678 360.113C625.108 369.279 647.994 371.164 673.794 364.323Z" fill="white" stroke="#0D2445" stroke-miterlimit="10"/>
<path d="M526.62 382.4C526.62 382.4 528.62 381.02 528.62 384.06V394.93C528.62 394.93 533.17 397.72 533.93 390.13V382.13C534.964 382.2 535.999 381.998 536.931 381.543C537.862 381.089 538.659 380.398 539.24 379.54" fill="#EFB0BE"/>
<path d="M526.62 382.4C526.62 382.4 528.62 381.02 528.62 384.06V394.93C528.62 394.93 533.17 397.72 533.93 390.13V382.13C534.964 382.2 535.999 381.998 536.931 381.543C537.862 381.089 538.659 380.398 539.24 379.54" stroke="#0D2445" stroke-linecap="round" stroke-linejoin="round"/>
<path d="M533.91 402.28L532.92 397.34" stroke="#0D2445" stroke-linecap="round" stroke-linejoin="round"/>
<path d="M539.18 403.25L538.64 398.32" stroke="#0D2445" stroke-linecap="round" stroke-linejoin="round"/>
<path d="M543.78 401.52V398.89" stroke="#0D2445" stroke-linecap="round" stroke-linejoin="round"/>
<path d="M707.44 301.49L717.61 307.39" stroke="#0D2445" stroke-linecap="round" stroke-linejoin="round"/>
<path d="M709.1 308.73L717.61 312.23" stroke="#0D2445" stroke-linecap="round" stroke-linejoin="round"/>
<path d="M710.02 313.46L717.609 316.97" stroke="#0D2445" stroke-linecap="round" stroke-linejoin="round"/>
<path d="M616 222.38C616 222.38 599.2 226.31 590 215.5C583.69 208.07 585.09 203.93 585.09 203.93C584.283 204.718 583.55 205.578 582.9 206.5C581.617 208.338 580.672 210.39 580.11 212.56C579.893 211.432 579.776 210.288 579.76 209.14C579.649 206.958 580.125 204.785 581.14 202.85C583.43 199.03 585.9 199.77 585.9 199.77C586.57 198.97 591.52 193.21 599.66 193.27C609.36 193.34 614.51 201.63 614.79 202.09L618.72 218.85L616 222.38Z" fill="#002346" stroke="#002346" stroke-miterlimit="10"/>
<path d="M615.13 229.33C618.063 229.33 620.44 226.554 620.44 223.13C620.44 219.706 618.063 216.93 615.13 216.93C612.198 216.93 609.82 219.706 609.82 223.13C609.82 226.554 612.198 229.33 615.13 229.33Z" fill="#EFB0BE" stroke="#0D2445" stroke-miterlimit="10"/>
<path d="M480.06 447.46L480.99 463.81L482.89 497.34C484.11 519.69 454.95 527.63 454.95 527.63L448.47 539.78C445.24 545.44 441.19 542.21 441.19 542.21L434.71 539L428.23 543.85C413.65 549.52 410.41 528.47 410.41 528.47C394.22 521.99 385.31 495.27 385.31 495.27C378.02 469.35 370.73 460.45 370.73 460.45C377.814 455.698 383.645 449.307 387.73 441.82C390.327 444.194 392.561 446.936 394.36 449.96C395.987 452.625 397.328 455.454 398.36 458.4C399.199 460.733 400.24 462.988 401.47 465.14C409.95 479.88 429.76 483.95 442.87 473.14C451 466.41 456.64 455.54 460.21 443.07C462.71 434.3 466.67 429.65 470.58 427.24C471.884 426.435 473.294 425.819 474.77 425.41C477.139 424.761 479.668 425.06 481.82 426.244C483.972 427.427 485.579 429.402 486.3 431.75C486.392 432.048 486.462 432.352 486.51 432.66C487.116 436.072 486.401 439.586 484.51 442.49C483.318 444.385 481.813 446.066 480.06 447.46Z" fill="#F58F74" stroke="#0D2445" stroke-miterlimit="10"/>
<path d="M486.32 431.69C485.599 429.342 483.992 427.367 481.84 426.184C479.688 425 477.159 424.701 474.79 425.35C473.314 425.759 471.903 426.375 470.6 427.18C470.6 427.18 467.11 417.5 475.21 416.69C475.21 416.69 487.67 415.52 491.16 425.01C491.15 425 493.39 429.68 486.32 431.69Z" fill="#FBE493" stroke="#0D2445" stroke-miterlimit="10"/>
<path d="M478.84 437.74C479.956 437.74 480.86 436.836 480.86 435.72C480.86 434.605 479.956 433.7 478.84 433.7C477.725 433.7 476.82 434.605 476.82 435.72C476.82 436.836 477.725 437.74 478.84 437.74Z" fill="#002346" stroke="#002346" stroke-miterlimit="10"/>
<path d="M486.73 435.72C486.73 435.72 490.73 438.21 491.49 442.43C489.233 443.274 486.747 443.274 484.49 442.43C484.49 442.43 486.93 438.55 486.73 435.72Z" fill="#002346" stroke="#002346" stroke-miterlimit="10"/>
<path d="M481 463.81L480.07 447.46C481.818 446.055 483.316 444.365 484.5 442.46L486.76 443.03C486.76 443.03 494.91 462.13 481 463.81Z" fill="#FBE493" stroke="#0D2445" stroke-miterlimit="10"/>
<path d="M410.41 479.85H392.54C392.54 479.85 387.66 519.67 416.2 526.85C423.866 528.698 431.939 527.785 439 524.27C450.11 518.82 465.13 505.59 456.54 474.99" stroke="#0D2445" stroke-linecap="round" stroke-linejoin="round"/>
<path d="M344 579.65C348.65 598.25 363.3 639.18 368.43 653.3C368.952 654.737 369.904 655.978 371.156 656.855C372.409 657.732 373.901 658.201 375.43 658.2H377.35C379.322 658.189 381.21 657.398 382.6 656L388.52 650.08C423.34 663.08 442.77 644.41 442.77 644.41L470.1 646C472.087 646.138 474.075 645.744 475.86 644.86C476.872 644.38 477.756 643.667 478.44 642.78C479.44 641.43 479.87 639.56 478.9 636.96C478.006 634.661 476.379 632.72 474.27 631.44C471.078 629.468 467.734 627.752 464.27 626.31C459.438 624.297 454.412 622.789 449.27 621.81C449.27 621.81 448.46 612.9 425.79 606.42C425.79 606.42 364.24 591.85 355.34 569.98L344 579.65Z" fill="#F58F74" stroke="#0D2445" stroke-miterlimit="10"/>
<path d="M428.2 631.48C426.258 634.043 423.954 636.31 421.36 638.21C417.66 640.952 413.413 642.864 408.907 643.818C404.402 644.771 399.744 644.743 395.25 643.736C390.757 642.728 386.533 640.764 382.866 637.978C379.199 635.192 376.175 631.649 374 627.59C369.9 619.83 368.86 609.09 377.23 595.04L402.43 606.04" stroke="#0D2445" stroke-linecap="round" stroke-linejoin="round"/>
<path d="M433.87 675.2L418.48 672.77L410.37 675.2" stroke="#0D2445" stroke-linecap="round" stroke-linejoin="round"/>
<path d="M403.05 653.95L418.48 672.78" stroke="#0D2445" stroke-linecap="round" stroke-linejoin="round"/>
<path d="M375.41 658.2L372.42 674.39" stroke="#0D2445" stroke-linecap="round" stroke-linejoin="round"/>
<path d="M386.84 675.2L372.42 673.99L362.6 676.01" stroke="#0D2445" stroke-linecap="round" stroke-linejoin="round"/>
<path d="M477.68 643.57C477.68 643.57 479.38 648.08 477.68 651.52C477.68 651.52 475.07 647.33 472.28 645.88C472.28 645.88 476.14 645.14 477.68 643.57Z" fill="#002346" stroke="#002346" stroke-miterlimit="10"/>
<path d="M464.26 626.26C467.724 627.702 471.068 629.418 474.26 631.39C476.368 632.671 477.996 634.611 478.89 636.91C479.89 639.51 479.44 641.38 478.43 642.73C478.74 642.88 485.67 645.98 486.43 640.81C486.587 639.653 486.37 638.475 485.81 637.45C483.59 633.11 475.51 619.83 464.26 626.26Z" fill="#FBE493" stroke="#0D2445" stroke-miterlimit="10"/>
<path d="M472.28 645.88C472.28 645.88 469.89 654.56 462 654C462 654 455.52 654 456 645.22L470.07 646C470.798 645.863 471.541 645.823 472.28 645.88Z" fill="#FBE493" stroke="#0D2445" stroke-miterlimit="10"/>
<path d="M473.55 640.38C474.444 640.38 475.17 639.655 475.17 638.76C475.17 637.865 474.444 637.14 473.55 637.14C472.655 637.14 471.93 637.865 471.93 638.76C471.93 639.655 472.655 640.38 473.55 640.38Z" fill="#002346" stroke="#002346" stroke-miterlimit="10"/>
<path d="M666.31 613.47C666.31 613.47 656.59 632.09 676.03 638.57V642.46C676.03 643.108 676.287 643.73 676.744 644.189C677.201 644.648 677.822 644.907 678.47 644.91H680.66C681.308 644.907 681.928 644.648 682.386 644.189C682.843 643.73 683.1 643.108 683.1 642.46V639.46H687.33V643.32C687.33 643.97 687.588 644.593 688.047 645.053C688.507 645.512 689.13 645.77 689.78 645.77C690.428 645.767 691.048 645.508 691.506 645.049C691.963 644.59 692.22 643.968 692.22 643.32V639.46C692.22 639.46 703.56 640.19 707.61 624.8H701.13C701.13 624.8 692.22 615.88 685.74 616.29C685.74 616.29 684.12 596.46 671.17 599.7C671.17 599.7 663.07 602.13 666.31 613.47Z" fill="#FBE493" stroke="#0D2445" stroke-miterlimit="10"/>
<path d="M665.75 606.3C665.75 606.3 659.83 607.8 659.83 611.85H665.91C665.499 610.028 665.445 608.143 665.75 606.3Z" fill="#002346" stroke="#002346" stroke-miterlimit="10"/>
<path d="M671.17 609.42C672.065 609.42 672.79 608.695 672.79 607.8C672.79 606.905 672.065 606.18 671.17 606.18C670.275 606.18 669.55 606.905 669.55 607.8C669.55 608.695 670.275 609.42 671.17 609.42Z" fill="#002346" stroke="#002346" stroke-miterlimit="10"/>
<path d="M677.88 619.29C677.88 619.29 673.03 625.62 678.54 631.49C680.774 633.808 683.822 635.167 687.04 635.28C691.67 635.49 698.54 634.11 701.13 624.8" stroke="#0D2445" stroke-linecap="round" stroke-linejoin="round"/>
<path d="M689.78 645.77V651.13" stroke="#0D2445" stroke-linecap="round" stroke-linejoin="round"/>
<path d="M685.74 651.13C688.716 650.908 691.707 651.042 694.65 651.53" stroke="#0D2445" stroke-linecap="round" stroke-linejoin="round"/>
<path d="M679.5 644.91L679.27 649.91" stroke="#0D2445" stroke-linecap="round" stroke-linejoin="round"/>
<path d="M673.77 651C676.966 649.749 680.437 649.366 683.83 649.89" stroke="#0D2445" stroke-linecap="round" stroke-linejoin="round"/>
<path d="M325.15 621.78C325.15 621.78 333.37 637.55 316.92 643.03V646.33C316.92 646.879 316.702 647.406 316.314 647.794C315.925 648.182 315.399 648.4 314.85 648.4H313C312.451 648.4 311.924 648.182 311.536 647.794C311.148 647.406 310.93 646.879 310.93 646.33V643.79H307.35V647.06C307.35 647.609 307.132 648.136 306.744 648.524C306.355 648.912 305.829 649.13 305.28 649.13C304.731 649.13 304.204 648.912 303.816 648.524C303.428 648.136 303.21 647.609 303.21 647.06V643.79C303.21 643.79 293.61 644.41 290.21 631.38H295.69C295.69 631.38 303.24 623.82 308.69 624.17C308.69 624.17 310.06 607.38 321.03 610.17C321 610.13 327.89 612.18 325.15 621.78Z" fill="#FBE493" stroke="#0D2445" stroke-miterlimit="10"/>
<path d="M325.62 615.71C325.62 615.71 330.62 616.98 330.62 620.41H325.47C325.827 618.868 325.878 617.271 325.62 615.71Z" fill="#002346" stroke="#002346" stroke-miterlimit="10"/>
<path d="M321.03 618.35C321.787 618.35 322.4 617.736 322.4 616.98C322.4 616.223 321.787 615.61 321.03 615.61C320.274 615.61 319.66 616.223 319.66 616.98C319.66 617.736 320.274 618.35 321.03 618.35Z" fill="#002346" stroke="#002346" stroke-miterlimit="10"/>
<path d="M315.35 626.71C315.35 626.71 319.46 632.07 314.79 637.04C312.899 638.999 310.322 640.15 307.6 640.25C303.67 640.43 297.85 639.25 295.66 631.38" stroke="#0D2445" stroke-linecap="round" stroke-linejoin="round"/>
<path d="M305.28 649.13V653.67" stroke="#0D2445" stroke-linecap="round" stroke-linejoin="round"/>
<path d="M308.69 653.67C306.173 653.479 303.642 653.59 301.15 654" stroke="#0D2445" stroke-linecap="round" stroke-linejoin="round"/>
<path d="M313.98 648.4L314.18 652.63" stroke="#0D2445" stroke-linecap="round" stroke-linejoin="round"/>
<path d="M318.83 653.58C316.128 652.501 313.188 652.156 310.31 652.58" stroke="#0D2445" stroke-linecap="round" stroke-linejoin="round"/>
<path d="M532.41 411.95C533.133 411.95 533.72 411.364 533.72 410.64C533.72 409.917 533.133 409.33 532.41 409.33C531.686 409.33 531.1 409.917 531.1 410.64C531.1 411.364 531.686 411.95 532.41 411.95Z" fill="#FBE493" stroke="#0D2445" stroke-miterlimit="10"/>
<path d="M539.4 420.68C540.123 420.68 540.71 420.094 540.71 419.37C540.71 418.647 540.123 418.06 539.4 418.06C538.676 418.06 538.09 418.647 538.09 419.37C538.09 420.094 538.676 420.68 539.4 420.68Z" fill="#FBE493" stroke="#0D2445" stroke-miterlimit="10"/>
<path d="M537.65 452.12C538.373 452.12 538.96 451.533 538.96 450.81C538.96 450.087 538.373 449.5 537.65 449.5C536.926 449.5 536.34 450.087 536.34 450.81C536.34 451.533 536.926 452.12 537.65 452.12Z" fill="#FBE493" stroke="#0D2445" stroke-miterlimit="10"/>
<path d="M547.25 439.02C547.974 439.02 548.56 438.433 548.56 437.71C548.56 436.986 547.974 436.4 547.25 436.4C546.527 436.4 545.94 436.986 545.94 437.71C545.94 438.433 546.527 439.02 547.25 439.02Z" fill="#FBE493" stroke="#0D2445" stroke-miterlimit="10"/>
<path d="M511.45 480.93C512.173 480.93 512.76 480.344 512.76 479.62C512.76 478.897 512.173 478.31 511.45 478.31C510.726 478.31 510.14 478.897 510.14 479.62C510.14 480.344 510.726 480.93 511.45 480.93Z" fill="#FBE493" stroke="#0D2445" stroke-miterlimit="10"/>
<path d="M524.55 468.71C525.274 468.71 525.86 468.124 525.86 467.4C525.86 466.677 525.274 466.09 524.55 466.09C523.827 466.09 523.24 466.677 523.24 467.4C523.24 468.124 523.827 468.71 524.55 468.71Z" fill="#FBE493" stroke="#0D2445" stroke-miterlimit="10"/>
<path d="M519.31 450.37C520.033 450.37 520.62 449.783 520.62 449.06C520.62 448.337 520.033 447.75 519.31 447.75C518.587 447.75 518 448.337 518 449.06C518 449.783 518.587 450.37 519.31 450.37Z" fill="#FBE493" stroke="#0D2445" stroke-miterlimit="10"/>
<path d="M480.31 669.08C481.083 669.08 481.71 668.453 481.71 667.68C481.71 666.907 481.083 666.28 480.31 666.28C479.537 666.28 478.91 666.907 478.91 667.68C478.91 668.453 479.537 669.08 480.31 669.08Z" fill="#FBE493" stroke="#0D2445" stroke-miterlimit="10"/>
<path d="M535.9 439.02C536.623 439.02 537.21 438.433 537.21 437.71C537.21 436.986 536.623 436.4 535.9 436.4C535.176 436.4 534.59 436.986 534.59 437.71C534.59 438.433 535.176 439.02 535.9 439.02Z" fill="#FBE493" stroke="#0D2445" stroke-miterlimit="10"/>
<path d="M526.3 432.03C527.024 432.03 527.61 431.444 527.61 430.72C527.61 429.997 527.024 429.41 526.3 429.41C525.577 429.41 524.99 429.997 524.99 430.72C524.99 431.444 525.577 432.03 526.3 432.03Z" fill="#FBE493" stroke="#0D2445" stroke-miterlimit="10"/>
<path d="M789.08 495.77C784.44 514.37 769.78 555.3 764.65 569.42C764.128 570.857 763.176 572.099 761.923 572.975C760.671 573.852 759.178 574.322 757.65 574.32H755.72C753.746 574.32 751.854 573.536 750.46 572.14L744.54 566.22C709.71 579.22 690.28 560.55 690.28 560.55L663 562.06C661.01 562.206 659.017 561.816 657.23 560.93C656.219 560.448 655.336 559.735 654.65 558.85C653.65 557.5 653.22 555.63 654.2 553.03C655.09 550.729 656.718 548.788 658.83 547.51C662.017 545.53 665.362 543.814 668.83 542.38C673.66 540.365 678.687 538.856 683.83 537.88C683.83 537.88 684.64 528.97 707.32 522.49C707.32 522.49 768.86 507.91 777.77 486.05L789.08 495.77Z" fill="#F58F74" stroke="#0D2445" stroke-miterlimit="10"/>
<path d="M704.87 547.59C706.808 550.156 709.109 552.426 711.7 554.33C715.402 557.079 719.653 558.997 724.164 559.955C728.674 560.912 733.338 560.886 737.837 559.878C742.337 558.87 746.566 556.905 750.237 554.114C753.908 551.324 756.935 547.775 759.11 543.71C763.21 535.95 764.25 525.21 755.88 511.15L730.68 522.15" stroke="#0D2445" stroke-linecap="round" stroke-linejoin="round"/>
<path d="M699.2 591.32L714.58 588.89L722.7 591.32" stroke="#0D2445" stroke-linecap="round" stroke-linejoin="round"/>
<path d="M730.02 570.07L714.58 588.89" stroke="#0D2445" stroke-linecap="round" stroke-linejoin="round"/>
<path d="M757.66 574.32L760.65 590.51" stroke="#0D2445" stroke-linecap="round" stroke-linejoin="round"/>
<path d="M746.22 591.32L760.65 590.11L770.46 592.13" stroke="#0D2445" stroke-linecap="round" stroke-linejoin="round"/>
<path d="M655.38 559.69C655.38 559.69 653.68 564.2 655.38 567.64C655.38 567.64 657.99 563.45 660.78 562C660.78 562 656.92 561.26 655.38 559.69Z" fill="#002346" stroke="#002346" stroke-miterlimit="10"/>
<path d="M668.81 542.38C665.342 543.814 661.997 545.53 658.81 547.51C656.699 548.788 655.07 550.729 654.18 553.03C653.18 555.63 653.62 557.5 654.63 558.85C654.32 559 647.4 562.09 646.63 556.93C646.48 555.772 646.7 554.596 647.26 553.57C649.47 549.22 657.55 536 668.81 542.38Z" fill="#FBE493" stroke="#0D2445" stroke-miterlimit="10"/>
<path d="M660.78 562C660.78 562 663.18 570.68 671.06 570.07C671.06 570.07 677.55 570.07 677.06 561.29L663 562.06C662.266 561.944 661.52 561.924 660.78 562Z" fill="#FBE493" stroke="#0D2445" stroke-miterlimit="10"/>
<path d="M659.52 556.5C660.415 556.5 661.14 555.775 661.14 554.88C661.14 553.986 660.415 553.26 659.52 553.26C658.626 553.26 657.9 553.986 657.9 554.88C657.9 555.775 658.626 556.5 659.52 556.5Z" fill="#002346" stroke="#002346" stroke-miterlimit="10"/>
<path d="M87.6504 524.64C92.2904 543.24 106.95 584.17 112.08 598.29C112.602 599.727 113.554 600.969 114.807 601.845C116.059 602.722 117.552 603.192 119.08 603.19H121C121.979 603.191 122.948 602.999 123.853 602.625C124.757 602.251 125.579 601.702 126.27 601.01L132.18 595.09C167.01 608.09 186.44 589.43 186.44 589.43L213.76 590.94C215.75 591.077 217.74 590.688 219.53 589.81C220.537 589.321 221.419 588.61 222.11 587.73C223.11 586.37 223.54 584.5 222.57 581.9C221.672 579.603 220.041 577.666 217.93 576.39C214.741 574.41 211.397 572.691 207.93 571.25C203.099 569.238 198.072 567.73 192.93 566.75C192.93 566.75 192.12 557.84 169.45 551.37C169.45 551.37 107.9 536.79 98.9904 514.93L87.6504 524.64Z" fill="#6C63FF" stroke="#0D2445" stroke-miterlimit="10"/>
<path d="M171.86 576.47C169.919 579.033 167.619 581.303 165.03 583.21C161.328 585.959 157.077 587.878 152.567 588.835C148.056 589.793 143.392 589.767 138.893 588.759C134.393 587.751 130.164 585.785 126.493 582.995C122.822 580.205 119.796 576.656 117.62 572.59C113.52 564.83 112.48 554.09 120.85 540.03L146.05 551.03" stroke="#0D2445" stroke-linecap="round" stroke-linejoin="round"/>
<path d="M177.53 620.2L162.15 617.77L154.04 620.2" stroke="#0D2445" stroke-linecap="round" stroke-linejoin="round"/>
<path d="M146.71 598.95L162.15 617.77" stroke="#0D2445" stroke-linecap="round" stroke-linejoin="round"/>
<path d="M119.07 603.19L116.08 619.39" stroke="#0D2445" stroke-linecap="round" stroke-linejoin="round"/>
<path d="M130.51 620.2L116.08 618.98L106.27 621.01" stroke="#0D2445" stroke-linecap="round" stroke-linejoin="round"/>
<path d="M221.35 588.56C221.35 588.56 223.05 593.08 221.35 596.56C221.35 596.56 218.74 592.36 215.95 590.92C216 590.88 219.81 590.13 221.35 588.56Z" fill="#002346" stroke="#002346" stroke-miterlimit="10"/>
<path d="M207.92 571.25C211.387 572.69 214.731 574.409 217.92 576.39C220.031 577.666 221.662 579.603 222.56 581.9C223.56 584.5 223.11 586.37 222.1 587.73C222.41 587.87 229.33 590.97 230.1 585.8C230.253 584.641 230.032 583.464 229.47 582.44C227.26 578.1 219.18 564.82 207.92 571.25Z" fill="#FBE493" stroke="#0D2445" stroke-miterlimit="10"/>
<path d="M216 590.88C216 590.88 213.61 599.56 205.72 598.95C205.72 598.95 199.24 598.95 199.72 590.16L213.78 590.94C214.514 590.824 215.26 590.804 216 590.88Z" fill="#FBE493" stroke="#0D2445" stroke-miterlimit="10"/>
<path d="M217.21 585.38C218.105 585.38 218.83 584.655 218.83 583.76C218.83 582.865 218.105 582.14 217.21 582.14C216.315 582.14 215.59 582.865 215.59 583.76C215.59 584.655 216.315 585.38 217.21 585.38Z" fill="#002346" stroke="#002346" stroke-miterlimit="10"/>
<path d="M437.24 132.87C437.24 132.87 419.13 135.87 419.89 136.64C420.65 137.41 572.79 136.64 572.79 136.64C572.79 136.64 571.03 122.33 555.47 130.64C556.59 127.73 554.75 109.08 534.38 118.34C534.58 106.61 514.51 85.7701 496.48 114.83C496.48 114.83 483.68 89.4801 471.63 117.09C471.63 117.09 459.08 112.82 452.3 126.09C452.3 126.09 443 122.33 437.24 132.87Z" fill="white" stroke="#0D2445" stroke-miterlimit="10"/>
<path d="M501.23 191.57C501.23 191.57 497.23 202.06 489.85 206.76C489.28 205.86 485.99 207.28 486.27 208.32C477.77 210.54 467.4 206.32 467.4 206.32C473.87 213.27 486.98 211.47 486.98 211.47L484.05 214C486.101 214.55 488.271 214.459 490.27 213.74C490.553 213.636 490.83 213.516 491.1 213.38C492.985 212.405 494.528 210.877 495.52 209L491.65 209.39C491.65 209.39 501.92 201 501.23 191.57ZM796.32 257.27C796.32 257.27 789.94 260.27 784.52 259.17C784.65 258.51 782.52 257.72 782.21 258.31C777.39 255.6 774.54 249.14 774.54 249.14C774.43 255.14 781.17 260.04 781.17 260.04L778.71 259.93C779.401 261.077 780.427 261.984 781.65 262.53C781.821 262.607 781.998 262.67 782.18 262.72C783.458 263.125 784.831 263.125 786.11 262.72L784.17 261.19C784.17 261.19 792.49 261.85 796.32 257.27ZM338.32 33.9301C338.32 33.9301 325.1 42.6701 312.71 41.9301C312.81 40.4201 307.86 39.3401 307.31 40.7601C295.74 36.2801 287.31 22.8401 287.31 22.8401C289.06 36.1601 305.6 45.0001 305.6 45.0001L300.11 45.5301C302.005 47.8613 304.571 49.5542 307.46 50.3801C307.87 50.4901 308.29 50.5801 308.71 50.6601C311.681 51.1079 314.719 50.6295 317.41 49.2901L312.63 46.5301C312.63 46.5301 331.3 45.3401 338.36 33.9301H338.32Z" fill="#F58F74"/>
</svg>
